<?xml version="1.0" standalone="no"?>
<!DOCTYPE svg PUBLIC "-//W3C//DTD SVG 20010904//EN"
 "http://www.w3.org/TR/2001/REC-SVG-20010904/DTD/svg10.dtd">
<svg version="1.0" xmlns="http://www.w3.org/2000/svg"
 width="698.000000pt" height="762.000000pt" viewBox="0 0 698.000000 762.000000"
 preserveAspectRatio="xMidYMid meet">

<g transform="translate(0.000000,762.000000) scale(0.100000,-0.100000)"
fill="#000000" stroke="none">
<path d="M3270 7614 c-19 -2 -84 -9 -145 -15 -764 -76 -1501 -422 -2058 -965
-592 -579 -934 -1277 -1039 -2124 -17 -138 -17 -601 0 -740 43 -349 113 -631
233 -932 159 -400 403 -783 698 -1094 l71 -74 2 1593 3 1592 28 90 c94 301
355 528 664 575 46 7 639 10 1813 8 l1745 -3 90 -28 c299 -93 525 -352 575
-658 6 -42 10 -597 10 -1617 l0 -1552 69 72 c343 364 598 782 759 1250 133
385 187 712 187 1138 0 268 -8 368 -46 595 -116 689 -445 1335 -935 1838 -568
582 -1257 924 -2079 1033 -104 14 -568 27 -645 18z m-36 -279 c79 -40 170
-140 221 -243 l39 -79 38 78 c79 162 214 266 357 277 222 16 384 -167 384
-433 -1 -271 -174 -570 -503 -870 -84 -77 -232 -198 -267 -219 -14 -8 -145 93
-283 218 -460 416 -629 899 -411 1175 99 124 282 166 425 96z"/>
<path d="M3027 7266 c-90 -33 -147 -90 -194 -191 -35 -77 -43 -214 -19 -319
57 -242 284 -536 606 -785 l76 -59 80 62 c330 261 544 544 600 795 23 104 15
236 -19 313 -31 69 -95 135 -162 169 -71 34 -189 34 -260 0 -73 -36 -154 -123
-199 -215 l-39 -78 -41 78 c-48 93 -121 171 -197 210 -66 33 -172 42 -232 20z"/>
<path d="M4210 3720 c-817 -851 -1486 -1555 -1488 -1564 -4 -18 757 -1078 770
-1074 5 2 10 6 11 9 1 3 -168 241 -376 530 -207 288 -376 529 -375 534 1 6
670 705 1485 1554 815 849 1480 1548 1477 1552 -3 5 -8 9 -12 8 -4 0 -675
-697 -1492 -1549z"/>
</g>
</svg>
