<svg width="32" height="32" viewBox="0 0 32 32" fill="none" xmlns="http://www.w3.org/2000/svg">
  <!-- 구름 본체 -->
  <path d="M8 20.5C5.5 20.5 3.5 18.5 3.5 16C3.5 13.8 4.8 11.9 6.8 11.2C7.3 8.4 9.8 6.5 12.5 6.5C14.2 6.5 15.7 7.3 16.6 8.6C17.2 8.4 17.8 8.3 18.5 8.3C21.8 8.3 24.5 11 24.5 14.3C24.5 14.7 24.4 15.1 24.3 15.5C26.3 16.1 27.5 18 27.5 20C27.5 22.5 25.5 24.5 23 24.5H9C8.7 24.5 8.3 24.3 8 20.5Z" 
        stroke="#B8A9FF" 
        stroke-width="1.2" 
        fill="none" 
        stroke-linecap="round" 
        stroke-linejoin="round"/>
  
  <!-- 얇은 실들 -->
  <path d="M10 26C10 26.8 9.3 27.5 8.5 27.5C7.7 27.5 7 26.8 7 26" 
        stroke="#E0D4FF" 
        stroke-width="0.8" 
        fill="none" 
        stroke-linecap="round"/>
  
  <path d="M15 27C15 27.8 14.3 28.5 13.5 28.5C12.7 28.5 12 27.8 12 27" 
        stroke="#E0D4FF" 
        stroke-width="0.8" 
        fill="none" 
        stroke-linecap="round"/>
  
  <path d="M20 26.5C20 27.3 19.3 28 18.5 28C17.7 28 17 27.3 17 26.5" 
        stroke="#E0D4FF" 
        stroke-width="0.8" 
        fill="none" 
        stroke-linecap="round"/>
  
  <path d="M25 25.5C25 26.3 24.3 27 23.5 27C22.7 27 22 26.3 22 25.5" 
        stroke="#E0D4FF" 
        stroke-width="0.8" 
        fill="none" 
        stroke-linecap="round"/>
  
  <!-- 떨어지는 작은 실들 -->
  <circle cx="9" cy="29" r="0.5" fill="#E0D4FF"/>
  <circle cx="13.5" cy="30" r="0.5" fill="#E0D4FF"/>
  <circle cx="18.5" cy="29.5" r="0.5" fill="#E0D4FF"/>
  <circle cx="23.5" cy="28.5" r="0.5" fill="#E0D4FF"/>
</svg> 