<?xml version="1.0" standalone="no"?>
<!DOCTYPE svg PUBLIC "-//W3C//DTD SVG 20010904//EN"
 "http://www.w3.org/TR/2001/REC-SVG-20010904/DTD/svg10.dtd">
<svg version="1.0" xmlns="http://www.w3.org/2000/svg"
 width="1024.000000pt" height="1024.000000pt" viewBox="0 0 1024.000000 1024.000000"
 preserveAspectRatio="xMidYMid meet">

<g transform="translate(0.000000,1024.000000) scale(0.100000,-0.100000)"
fill="#000000" stroke="none">
<path d="M3200 9250 c-82 -15 -143 -71 -181 -167 -21 -53 -23 -72 -21 -222 l1
-164 -57 83 c-74 108 -199 241 -286 302 -71 49 -172 88 -230 88 -104 0 -217
-77 -267 -183 -148 -314 61 -960 468 -1447 l80 -94 -32 -46 c-54 -75 -106
-188 -133 -289 -22 -82 -25 -118 -26 -246 0 -165 11 -230 65 -363 36 -90 83
-171 146 -248 l46 -56 -126 -126 c-150 -151 -237 -258 -351 -430 -103 -156
-184 -297 -269 -467 -266 -533 -341 -899 -224 -1098 104 -175 323 -203 476
-61 69 63 107 136 147 279 24 89 56 175 108 298 9 20 17 37 19 37 1 0 2 -114
3 -253 1 -237 8 -332 40 -484 6 -31 5 -32 -47 -47 -66 -20 -154 -20 -209 -1
-84 30 -153 14 -207 -48 -134 -152 16 -474 263 -567 118 -43 281 -43 428 1 37
11 70 18 73 15 11 -10 -93 -154 -153 -212 -77 -75 -225 -174 -361 -244 -127
-64 -194 -131 -219 -218 -64 -221 144 -578 413 -708 196 -95 429 -80 544 35
66 65 85 149 57 244 -16 54 -95 138 -163 173 -30 16 -55 31 -55 34 0 3 19 13
41 24 119 54 299 194 445 344 l80 84 57 -94 c68 -113 142 -268 191 -403 20
-55 61 -149 91 -210 69 -140 131 -212 223 -257 62 -31 73 -33 162 -32 73 1
113 7 175 27 99 33 236 102 324 164 89 63 210 186 243 249 100 186 60 358 -98
431 -52 23 -65 25 -153 21 -89 -5 -173 -28 -301 -82 -12 -5 -20 13 -39 86 -34
138 -142 458 -195 582 -43 98 -79 168 -145 278 l-22 36 36 73 c84 165 150 367
180 549 31 183 30 516 -2 738 l-6 44 123 -91 c67 -50 174 -124 236 -163 113
-73 113 -73 114 -113 1 -119 66 -244 158 -305 77 -51 168 -73 265 -66 45 4 98
6 117 5 104 -7 168 -1 222 20 75 29 150 97 185 169 25 51 28 68 28 152 -1 79
-5 106 -27 158 l-26 62 62 53 c143 124 276 225 276 209 0 -5 -18 -92 -39 -193
-75 -352 -101 -532 -101 -692 0 -98 19 -258 39 -324 9 -31 8 -32 -65 -83 -97
-67 -243 -135 -322 -151 -96 -18 -191 -8 -263 30 -78 41 -130 42 -169 3 -57
-57 -46 -153 30 -268 79 -120 212 -223 349 -269 111 -38 187 -47 355 -43 86 1
156 1 156 -1 0 -2 -20 -32 -45 -66 -55 -77 -146 -162 -268 -248 -114 -82 -160
-128 -188 -192 -87 -195 78 -534 342 -705 91 -59 172 -81 295 -82 176 -1 280
45 330 147 23 49 26 64 22 125 -8 108 -54 172 -167 230 -22 12 -41 23 -41 25
0 2 19 14 43 28 87 51 235 174 354 293 l122 122 54 -86 c85 -137 109 -182 221
-425 118 -258 146 -306 217 -372 81 -76 123 -90 264 -89 103 0 132 4 205 28
172 57 363 175 463 286 123 137 156 283 92 410 -54 107 -150 155 -299 148 -81
-3 -101 -8 -170 -41 -44 -21 -80 -36 -81 -35 -1 2 -16 43 -34 92 -63 177 -163
414 -242 572 l-80 162 64 143 c144 322 195 552 215 968 l7 144 43 -102 c67
-161 91 -241 112 -383 30 -196 79 -281 195 -338 41 -20 66 -25 135 -25 73 0
93 4 141 28 72 35 132 100 172 185 28 60 31 78 35 186 5 142 -8 246 -54 412
-91 335 -281 699 -550 1055 -86 114 -125 159 -258 303 -56 59 -109 120 -118
135 -19 28 -25 116 -8 126 5 3 32 -6 61 -20 222 -113 521 -27 615 178 27 58
29 71 29 182 0 137 -12 185 -96 412 -145 390 -258 578 -448 747 -270 240 -685
339 -1036 250 -86 -22 -236 -96 -316 -155 -112 -83 -209 -200 -279 -338 -74
-145 -115 -166 -350 -181 -80 -5 -168 -16 -196 -25 -79 -23 -137 -74 -176
-152 -33 -67 -33 -69 -32 -203 0 -150 14 -217 66 -327 49 -105 149 -216 261
-292 119 -81 312 -148 456 -158 l84 -6 -62 -28 c-97 -44 -174 -93 -336 -215
-173 -129 -298 -237 -513 -441 l-153 -145 -122 73 c-163 98 -536 348 -667 445
-101 76 -244 203 -237 210 2 2 38 13 80 24 140 35 273 114 366 215 111 122
172 268 173 412 0 76 -4 92 -32 150 -27 54 -44 73 -101 115 -76 56 -91 77
-147 212 -79 187 -180 326 -305 420 -76 57 -185 116 -253 136 l-40 12 4 204
c7 344 -29 575 -133 835 -124 311 -288 468 -455 439z m106 -276 c82 -87 179
-331 226 -565 19 -99 22 -146 23 -351 0 -130 -2 -238 -5 -241 -3 -2 -44 -2
-91 1 l-85 4 -12 92 c-6 50 -29 181 -51 291 -52 259 -78 414 -92 550 -10 100
-7 212 7 250 10 26 36 16 80 -31z m-808 -61 c59 -27 191 -168 270 -288 165
-249 329 -636 382 -900 13 -68 30 -99 62 -116 13 -7 90 -12 207 -13 214 -3
255 -11 397 -81 182 -89 302 -233 388 -465 44 -116 73 -156 158 -216 l73 -51
-1 -62 c-2 -129 -120 -298 -256 -367 -27 -14 -104 -39 -171 -55 -168 -42 -217
-83 -217 -182 0 -145 213 -347 724 -686 88 -58 216 -140 283 -181 l121 -74
-38 -55 c-20 -31 -54 -89 -74 -129 -26 -52 -41 -72 -51 -68 -24 9 -255 165
-340 230 -43 33 -128 106 -187 163 -99 94 -111 103 -147 103 -46 0 -88 -29
-107 -77 -13 -30 -12 -43 5 -116 61 -258 76 -384 76 -652 0 -183 -4 -251 -19
-330 -23 -125 -73 -280 -121 -374 l-36 -72 -69 65 c-39 36 -81 68 -95 72 -35
9 -89 -3 -107 -24 -54 -62 -46 -105 36 -192 155 -163 298 -381 381 -580 65
-156 171 -501 205 -665 16 -78 34 -111 70 -130 44 -23 68 -19 156 24 128 62
259 111 294 111 42 0 70 -25 70 -62 0 -43 -21 -76 -92 -144 -156 -151 -407
-270 -519 -245 -82 19 -121 80 -232 362 -175 447 -334 666 -707 976 -228 190
-362 339 -418 465 -24 54 -56 179 -74 288 -16 96 -16 481 0 615 7 55 19 145
28 201 16 99 17 102 71 165 134 155 173 210 173 240 0 62 -49 119 -103 119
-47 0 -81 -25 -163 -120 -269 -311 -497 -700 -575 -982 -37 -132 -49 -159 -85
-187 -40 -31 -87 -28 -118 9 -32 39 -40 82 -33 189 18 286 315 905 636 1326
78 102 251 283 353 368 104 87 103 156 -5 273 -111 121 -173 230 -203 361 -18
77 -20 241 -4 323 24 129 84 261 155 340 81 91 76 112 -66 279 -153 180 -221
279 -309 454 -179 357 -242 710 -144 818 21 23 64 24 112 2z m4567 -1112 c238
-49 435 -173 575 -362 94 -126 192 -336 287 -614 36 -105 50 -207 39 -269 -23
-120 -192 -171 -342 -102 -118 54 -163 193 -164 499 -1 78 -5 188 -9 244 -10
116 -26 149 -87 178 -76 36 -162 -25 -149 -105 3 -19 9 -150 14 -290 10 -263
24 -375 62 -476 l20 -54 -26 -77 c-24 -68 -27 -89 -23 -173 6 -132 34 -184
182 -340 329 -345 591 -763 730 -1168 117 -339 115 -584 -6 -630 -30 -12 -40
-12 -64 0 -49 24 -64 57 -79 171 -27 206 -55 282 -229 622 -132 259 -210 390
-258 430 -41 35 -88 33 -130 -4 -39 -35 -41 -61 -14 -241 22 -152 31 -510 17
-671 -20 -232 -69 -430 -157 -634 -34 -79 -39 -86 -51 -69 -94 133 -158 212
-183 228 -65 38 -152 -14 -154 -92 0 -31 9 -51 51 -108 237 -322 377 -600 582
-1164 87 -239 111 -252 280 -155 176 100 267 113 285 40 22 -86 -127 -227
-348 -330 -177 -83 -276 -87 -342 -13 -25 26 -61 96 -165 323 -190 412 -291
555 -664 935 -266 270 -327 346 -404 497 -48 95 -71 194 -78 324 -10 190 24
425 137 955 33 152 49 251 45 271 -8 45 -56 83 -105 83 -44 0 -90 -29 -296
-185 -230 -175 -429 -341 -504 -422 -82 -88 -160 -209 -192 -300 l-23 -65 -40
7 c-50 8 -92 32 -119 68 -31 42 -29 179 3 260 45 114 136 232 321 418 430 432
754 677 1023 774 122 43 167 136 114 235 -33 62 -95 94 -237 121 -301 56 -426
107 -546 221 -77 74 -136 171 -149 248 -6 33 -4 36 28 48 83 30 169 122 183
197 5 30 6 31 92 43 148 20 264 71 329 146 16 17 53 75 82 129 109 196 234
308 415 374 124 45 296 54 441 24z m-1588 -3183 c-6 -48 -32 -86 -76 -111 -24
-15 -31 -16 -31 -5 0 18 91 158 103 158 5 0 7 -18 4 -42z m-2773 -989 c10 -16
39 -56 65 -87 68 -82 68 -80 24 -98 -58 -25 -167 -35 -241 -24 -132 22 -210
85 -238 196 -6 23 -5 24 21 14 42 -16 202 -11 275 9 36 10 67 19 70 20 3 0 14
-13 24 -30z m3342 -73 l60 -92 -14 -51 -14 -50 -76 -21 c-220 -60 -398 -46
-549 44 l-48 29 72 7 c132 14 305 86 443 186 30 22 57 40 60 40 3 0 32 -41 66
-92z m544 -599 c0 -5 -66 -74 -147 -155 -153 -153 -265 -239 -411 -319 -95
-52 -118 -84 -106 -151 10 -52 121 -157 214 -202 70 -34 93 -61 70 -84 -7 -7
-51 -11 -118 -11 -100 0 -111 2 -160 30 -131 72 -282 286 -282 399 0 62 8 71
146 164 224 152 362 329 449 575 l28 79 159 -159 c87 -87 158 -161 158 -166z
m-3242 40 l23 -25 -67 -77 c-124 -142 -288 -268 -470 -360 -58 -29 -114 -61
-124 -70 -30 -27 -43 -79 -31 -118 13 -39 167 -184 229 -216 38 -20 62 -46 62
-70 0 -39 -212 -40 -294 -1 -136 66 -296 289 -296 414 0 50 30 80 133 131 274
138 468 317 576 533 l32 63 102 -89 c56 -50 112 -101 125 -115z"/>
<path d="M3749 7051 c-31 -31 -39 -46 -39 -75 0 -77 50 -126 129 -126 50 0 96
37 112 89 22 75 -40 151 -125 151 -31 0 -45 -7 -77 -39z"/>
<path d="M6439 7167 c-102 -69 -43 -227 79 -214 117 13 149 156 50 217 -43 26
-87 25 -129 -3z"/>
</g>
</svg>
